<?xml version="1.0" standalone="no"?>
<!DOCTYPE svg PUBLIC "-//W3C//DTD SVG 20010904//EN"
 "http://www.w3.org/TR/2001/REC-SVG-20010904/DTD/svg10.dtd">
<svg version="1.0" xmlns="http://www.w3.org/2000/svg"
 width="64.000000pt" height="64.000000pt" viewBox="0 0 64.000000 64.000000"
 preserveAspectRatio="xMidYMid meet">

<g transform="translate(0.000000,64.000000) scale(0.100000,-0.100000)"
fill="#000000" stroke="none">
<path d="M291 491 c-9 -6 8 -21 63 -52 59 -33 73 -45 64 -56 -16 -19 -26 -16
-108 32 l-74 44 -38 -21 -38 -22 0 -97 c0 -88 2 -99 20 -109 19 -10 20 -8 20
80 0 88 1 90 20 78 18 -11 20 -24 20 -105 l0 -93 40 -20 40 -20 52 30 c29 16
49 30 45 30 -5 0 2 15 14 33 13 18 16 26 7 19 -9 -7 -36 -23 -62 -36 l-46 -23
0 23 c0 17 16 32 73 66 l72 44 3 50 3 50 -74 42 c-77 43 -92 48 -116 33z m-2
-98 c-17 -20 -49 -26 -65 -12 -13 10 -11 14 12 30 21 13 31 15 45 6 13 -8 15
-15 8 -24z m72 -20 c24 -14 29 -24 29 -54 0 -32 -5 -41 -35 -59 l-35 -22 -35
22 c-30 18 -35 27 -35 58 0 30 6 40 28 54 35 21 48 21 83 1z m68 -69 c-19 -23
-29 -16 -29 17 0 19 7 37 18 45 15 11 17 9 20 -17 2 -17 -2 -37 -9 -45z m-144
-60 c15 -10 25 -26 25 -40 0 -23 0 -23 -30 -6 -19 11 -30 25 -30 40 0 26 3 27
35 6z"/>
<path d="M293 353 c-15 -5 -18 -59 -4 -68 5 -3 12 3 14 12 4 17 5 17 6 1 1
-22 6 -22 31 -1 42 37 7 78 -47 56z m47 -13 c11 -7 11 -10 2 -10 -7 0 -10 -5
-7 -10 4 -6 -5 -5 -20 2 -18 8 -22 14 -13 20 16 10 20 10 38 -2z"/>
</g>
</svg>
